<svg width="100" height="100" viewBox="0 0 100 100" fill="none" xmlns="http://www.w3.org/2000/svg">
<g clip-path="url(#clip0_3450_152)">
<path d="M11.7702 24.237C11.0474 28.1221 9.89854 31.7888 9.6238 35.7725C9.50042 37.5616 9.61181 39.4004 9.61181 41.1925C9.61181 43.2182 10.2184 45.1045 10.2593 47.0681C10.303 49.1623 11.0842 51.4181 11.5544 53.4474C12.3185 56.7452 13.7722 59.8208 14.9958 62.9564C16.3041 66.3088 17.5491 69.7114 18.9409 73.017C19.3024 73.8754 19.9387 74.9675 19.9722 75.8709C20.0221 77.2179 20.3486 79.1747 20.7276 80.4635C21.2123 82.1116 20.5276 84.4516 21.6509 85.7995C22.1383 86.3843 22.0358 86.538 22.886 86.7228C23.651 86.8891 24.431 86.8521 25.2003 86.9986C26.6531 87.2754 29.0319 87.0413 30.2126 86.0753C31.4676 85.0485 32.3866 84.0894 33.1864 82.6818C33.9139 81.4015 34.5464 78.9308 34.6373 77.4297C34.8304 74.2446 33.4246 71.2796 32.371 68.3164C31.8022 66.7166 31.5447 64.9354 30.98 63.3041C30.4808 61.862 29.4305 60.4889 29.2413 58.9753C29.0116 57.1375 27.3001 55.3637 26.7831 53.5913C26.212 51.633 26.0157 49.9297 26.0157 47.8835C26.0157 44.4439 28.883 41.8963 31.088 39.5617C31.5816 39.039 32.5159 38.6554 32.8267 38.0028C33.1746 37.2723 33.7114 36.8228 34.2416 36.2041C35.6963 34.5071 38.3518 33.1401 39.3499 31.1439C39.9599 29.9238 40.2843 28.5742 40.2612 27.2108C40.2381 25.8496 39.188 23.7034 37.6591 23.6014C34.4878 23.39 31.384 22.5103 28.1981 22.5103C24.9685 22.5103 21.7389 22.5103 18.5092 22.5103C17.2084 22.5103 15.9243 22.9419 14.6841 22.9419C13.4344 22.9419 12.4602 23.7883 11.3385 24.237" stroke="black" stroke-width="3" stroke-linecap="round"/>
<path d="M32.2751 36.7557C31.8891 38.6 31.4117 39.9661 31.4117 41.888C31.4117 42.9112 31.4117 43.9344 31.4117 44.9577C31.4117 46.6365 31.0697 47.9959 30.7762 49.6103C30.0861 53.4059 30.7642 57.3398 30.7642 61.1457C30.7642 61.2448 30.851 62.1723 30.9321 61.6254C31.0998 60.493 30.9676 59.2908 30.98 58.148C31.0035 55.9881 31.6275 53.8801 31.6275 51.7327C31.6275 48.6024 31.3786 45.3588 31.8554 42.2597C32.0807 40.795 33.5312 39.6977 33.9538 38.2187C34.1581 37.5038 34.3123 36.8532 34.5414 36.1202C34.617 35.8783 34.6493 34.6867 34.6493 35.4607" stroke="black" stroke-width="3" stroke-linecap="round"/>
<path d="M33.7859 37.8349C34.2834 37.1911 34.7952 35.8113 35.5127 35.4127C35.6049 35.3615 36.2721 35.1809 36.0643 35.077C35.22 34.6548 34.5518 36.4587 34.3855 36.9716C33.8903 38.4984 33.4683 40.1882 32.8266 41.6721C32.2448 43.0176 31.3698 45.0535 30.2366 46.0249C30.1699 46.082 30.7961 44.3001 31.004 43.9504C31.7564 42.685 32.5 41.4917 33.3423 40.2931C33.9923 39.3681 34.4534 38.2916 34.7572 37.2114C34.9225 36.6238 35.3175 36.3331 35.5127 35.7964C35.7859 35.0449 36.5646 34.1689 37.1195 33.614C37.8051 32.9285 36.6922 34.0971 36.5079 34.3695C35.7704 35.4598 35.4041 36.6842 34.7692 37.787C33.6545 39.723 32.5418 41.7381 31.5316 43.7585C30.7627 45.2964 30.0925 46.7931 29.7329 48.4831C29.5749 49.2259 29.453 50.0191 29.2053 50.7374C29.1255 50.969 28.9503 51.1518 28.8696 51.3849C28.8492 51.4438 28.8429 51.9079 28.8096 51.9245C28.6838 51.9874 28.6058 49.189 28.6058 49.0826C28.6058 47.7596 28.6058 46.4366 28.6058 45.1135C28.6058 44.8608 28.6519 43.4392 28.5938 44.514C28.5095 46.0733 28.0427 47.5728 27.9702 49.1306C27.9297 50.0013 27.6411 51.8323 28.0782 52.644C28.5168 53.4585 28.8216 56.2432 28.8216 55.318" stroke="black" stroke-width="3" stroke-linecap="round"/>
<path d="M29.2534 43.6627C30.4823 41.5401 31.8747 39.9622 33.5822 38.2546C34.5415 37.2954 35.1777 36.3623 35.8246 35.1609C35.9702 34.8905 36.6925 32.8317 36.7599 32.8466C36.9338 32.8853 35.9947 36.7512 35.7766 37.1874C35.3481 38.0445 36.6678 35.487 37.0237 34.5973C37.6101 33.1312 36.2275 35.5156 36.0284 36.0243C34.8636 39.0011 33.9241 42.0531 33.0906 45.0536C32.7112 46.4194 32.6322 47.8916 32.3831 49.2865C32.0616 51.0869 31.6277 52.8329 31.6277 54.6825C31.6277 56.919 31.6805 59.1127 31.8435 61.3136C31.9722 63.0508 32.97 65.2029 33.5702 66.8535C33.8344 67.58 34.0019 68.5205 34.0019 69.2997C34.0019 70.2262 34.6494 70.9618 34.6494 71.9378" stroke="black" stroke-width="3" stroke-linecap="round"/>
<path d="M27.9583 37.4033C27.1141 40.647 25.5946 43.7116 24.8646 46.9723C24.4821 48.6806 23.8573 50.5376 23.8573 52.2963C23.8573 53.2876 23.8573 54.2789 23.8573 55.2701C23.8573 55.7423 23.7132 57.1186 23.9053 55.8217C24.13 54.3052 24.7528 52.8779 25.0085 51.361C25.3059 49.5964 25.5156 47.835 25.9078 46.0849C26.5326 43.2976 27.732 40.8538 29.0015 38.3146C29.7255 36.8667 30.5004 35.3244 30.8122 33.734C30.8794 33.3915 31.4118 31.3713 31.4118 32.6069C31.4118 33.8645 31.9004 33.1969 32.6708 32.5709C33.0925 32.2283 33.4626 31.8152 33.8939 31.4797C34.2579 31.1966 35.0379 31.3928 35.2489 31.7915C35.3328 31.9499 34.0387 32.1226 33.834 32.439C32.5711 34.3908 31.6236 36.9307 30.9321 39.178C30.61 40.2247 30.0749 41.1609 29.793 42.1758C29.5405 43.0847 29.3398 43.9877 29.0855 44.9098C28.8732 45.6792 29.1332 46.2472 28.7018 46.9483C28.0502 48.007 28.39 50.0868 28.39 51.325C28.39 52.5841 28.39 53.8432 28.39 55.1022C28.39 56.4413 28.39 57.7803 28.39 59.1193C28.39 59.9387 28.39 60.7581 28.39 61.5775C28.39 62.3823 28.783 62.9614 28.8217 63.7359C28.8486 64.2737 29.1452 64.814 29.2414 65.3427C29.3843 66.1288 29.3461 66.945 29.4932 67.7169C29.5866 68.2073 30.1939 68.8785 30.4285 69.3477C30.7299 69.9506 29.9826 69.5142 29.793 69.3357C29.1217 68.7039 29.0314 68.097 28.9296 67.2013C28.5978 64.2815 28.2113 61.205 27.5746 58.3399C27.119 56.2898 27.3108 54.0773 27.3108 51.9846C27.3108 51.1556 26.8791 50.5481 26.8791 49.7542C26.8791 48.8271 26.9562 47.957 27.1429 47.0442C27.5169 45.2159 28.163 43.2438 28.9296 41.5403C29.4766 40.3246 30.2892 39.2882 30.7642 38.0029C31.1766 36.8871 31.6316 35.9653 32.2751 34.9811C32.8799 34.0561 33.3972 33.0196 34.0978 32.3191C34.1722 32.2447 34.8417 31.1766 34.8652 31.5756C34.9054 32.2593 34.6295 32.9645 34.1697 33.4702C33.5071 34.1991 33.3627 35.6358 32.9107 36.54C32.6421 37.077 32.3542 38.0834 31.8434 38.4346C31.2752 38.8252 31.514 39.9164 31.1959 40.4731C30.3771 41.906 30.6759 43.6643 30.0208 45.1616C28.9848 47.5295 28.6058 50.0344 28.6058 52.6321C28.6058 53.2099 28.4057 53.6891 28.39 54.2389C28.3798 54.5947 28.4254 54.9638 28.39 55.3181C28.3561 55.657 27.9922 55.8426 27.9583 56.1815C27.8179 57.5853 27.9583 59.0769 27.9583 60.4863C27.9583 62.9174 28.1742 65.2057 28.1742 67.621" stroke="white" stroke-width="3" stroke-linecap="round"/>
<path d="M37.2395 73.0169C36.4191 71.8889 36.5616 71.1872 36.7958 69.8992C37.0035 68.7571 36.8078 67.3886 36.8078 66.23C36.8078 65.7223 36.8078 65.2147 36.8078 64.7071C36.8078 64.4002 36.8078 65.8874 36.8078 66.206C36.8078 66.6149 36.7018 68.8777 36.3761 68.916C35.1679 69.0581 35.2969 67.1911 35.2969 66.2419C35.2969 65.4288 34.8999 64.555 34.8653 63.6878C34.8292 62.7876 34.6494 61.803 34.6494 60.8219C34.6494 59.2073 35.779 59.1948 37.0237 58.9873" stroke="white" stroke-width="3" stroke-linecap="round"/>
<path d="M33.5701 71.7219C33.0691 70.5431 32.0592 69.2426 32.0592 67.9327C32.0592 66.8884 31.8804 65.8262 31.8434 64.863C31.8075 63.9298 31.6308 63.0727 31.2918 62.2009C30.8819 61.1471 30.98 60.1032 30.98 58.9873" stroke="black" stroke-width="3" stroke-linecap="round"/>
<path d="M11.9861 25.7479C12.6656 24.8854 13.4125 24.3988 14.2404 23.7213C14.3504 23.6314 15.5645 23.3949 15.2237 23.3736C13.7756 23.2831 12.7605 23.4109 11.8662 24.5607C11.4748 25.064 11.0318 25.4743 10.6431 25.9637C10.0757 26.6782 9.74059 27.2723 9.27612 28.0022C8.96692 28.4881 8.42453 28.7696 9.34806 28.7696C9.96349 28.7696 10.7037 28.5159 10.9069 27.9063" stroke="black" stroke-width="3" stroke-linecap="round"/>
<path d="M13.0652 25.7479C12.2527 26.7821 10.288 30.215 10.9548 29.0815C11.3681 28.3788 12.4458 26.7295 13.281 26.3955C14.0662 26.0814 14.8735 25.6592 15.6553 25.2683C16.2293 24.9813 16.173 24.9882 16.5666 24.4529C16.9361 23.9504 17.551 24.0258 17.8137 23.6975C18.0607 23.3887 18.5613 23.4007 17.5739 23.9253C16.7272 24.3751 15.9546 25.1964 15.0318 25.3283C13.8259 25.5005 13.1227 27.1271 12.4177 27.9063C11.8873 28.4926 11.9326 28.6856 11.7222 29.3693C11.5635 29.8851 11.308 29.8603 11.1226 30.1847C10.6692 30.9783 10.2593 31.5018 10.2593 32.439" stroke="black" stroke-width="3" stroke-linecap="round"/>
<path d="M4 31.144C4.73035 28.75 5.83038 26.076 7.62133 24.285C8.17594 23.7304 8.81603 23.1472 9.22814 22.5103C9.51062 22.0738 11.1927 21.7088 10.1155 22.7142C8.92781 23.8227 7.74397 24.396 7.15367 26.0357C6.78835 27.0505 6.52896 27.9208 5.94257 28.8177C5.62594 29.3019 5.31068 30.5967 5.29504 31.144C5.28473 31.5049 5.19465 33.139 6.03849 32.2951C6.63053 31.7031 6.44424 30.7371 6.90186 30.1487C7.30479 29.6306 7.66929 28.9934 7.66929 28.326C7.66929 27.0158 8.78349 25.3043 9.22814 24.0692C9.65199 22.8918 11.4646 21.4453 12.6216 21.0114C13.3718 20.7301 14.1444 20.6223 14.888 20.3519C15.6489 20.0752 15.5103 19.5983 15.8712 19.0569" stroke="white" stroke-width="3" stroke-linecap="round"/>
<path d="M16.9506 33.734C16.5691 32.3749 16.0327 30.123 16.8546 28.8176C17.3679 28.0025 18.0848 27.8915 18.6293 27.2108C19.1128 26.6064 17.2207 27.1228 16.9506 27.3787C16.2492 28.0431 15.2007 29.1642 14.3485 29.5371C13.6565 29.8398 13.0654 30.1543 13.0654 30.9281C13.0654 31.698 13.0674 30.6629 13.1134 30.4484C13.256 29.7831 13.6923 29.3512 14.0127 28.7816C14.7069 27.5477 17.778 27.1628 18.8931 27.9063" stroke="white" stroke-width="3" stroke-linecap="round"/>
<path d="M9.61193 18.841C8.69771 17.6774 7.87516 14.9999 8.65264 13.4449C9.30975 12.1307 11.0488 12.0365 12.0341 13.0612C12.7956 13.8531 12.9507 16.1037 12.5138 17.1022C12.1415 17.9532 10.7616 18.3623 10.0436 18.841" stroke="black" stroke-width="3" stroke-linecap="round"/>
<path d="M18.893 17.33C17.697 15.7603 17.0343 11.3295 19.9722 11.5024C21.089 11.568 21.0514 13.6987 21.0514 14.4162C21.0514 15.9563 20.8449 16.6732 19.7563 17.7617" stroke="black" stroke-width="3" stroke-linecap="round"/>
<path d="M27.3107 17.3301C25.9752 16.5158 25.7998 16.1958 25.7998 14.6921C25.7998 13.7988 25.6882 12.8296 26.0157 11.9821C26.5409 10.6226 27.8912 11.0707 29.1454 11.0707C30.7762 11.0707 31.5397 13.3919 30.956 14.6321C30.5486 15.4979 29.5274 16.3794 28.6178 16.6826C28.114 16.8505 27.5578 17.0518 27.3107 17.546" stroke="black" stroke-width="3" stroke-linecap="round"/>
<path d="M35.2969 17.5459C34.1993 14.7698 34.138 11.5759 37.839 11.7182C39.139 11.7682 38.7503 13.868 38.7503 14.692C38.7503 15.5082 38.693 16.3096 38.2107 17.0063C37.8507 17.5263 37.2207 17.818 37.0236 18.4093" stroke="black" stroke-width="3" stroke-linecap="round"/>
<path d="M41.9879 18.6252C41.54 16.0497 43.1758 13.076 45.2735 11.5504C45.7874 11.1767 46.4802 11.6794 46.8444 11.9221C47.7904 12.5528 47.5998 14.3352 47.5998 15.3156C47.5998 16.9565 47.9302 20.4188 45.6692 20.7956C44.4097 21.0055 42.4196 21.5564 42.4196 19.7044" stroke="black" stroke-width="3" stroke-linecap="round"/>
<path d="M91.8465 24.237C92.5693 28.1221 93.7182 31.7888 93.9929 35.7725C94.1163 37.5616 94.0049 39.4004 94.0049 41.1925C94.0049 43.2182 93.3983 45.1045 93.3574 47.0681C93.3137 49.1623 92.5325 51.4181 92.0623 53.4474C91.2982 56.7452 89.8445 59.8208 88.6209 62.9564C87.3126 66.3088 86.0676 69.7114 84.6758 73.017C84.3143 73.8754 83.678 74.9675 83.6445 75.8709C83.5946 77.2179 83.2681 79.1747 82.8891 80.4635C82.4044 82.1116 83.0891 84.4516 81.9658 85.7995C81.4784 86.3843 81.5809 86.538 80.7307 86.7228C79.9657 86.8891 79.1857 86.8521 78.4164 86.9986C76.9636 87.2754 74.5848 87.0413 73.4041 86.0753C72.1491 85.0485 71.2301 84.0894 70.4303 82.6818C69.7028 81.4015 69.0703 78.9308 68.9794 77.4297C68.7863 74.2446 70.1921 71.2796 71.2457 68.3164C71.8145 66.7166 72.072 64.9354 72.6367 63.3041C73.1359 61.862 74.1862 60.4889 74.3754 58.9753C74.6051 57.1375 76.3166 55.3637 76.8336 53.5913C77.4047 51.633 77.601 49.9297 77.601 47.8835C77.601 44.4439 74.7337 41.8963 72.5287 39.5617C72.0351 39.039 71.1008 38.6554 70.79 38.0028C70.4421 37.2723 69.9053 36.8228 69.3751 36.2041C67.9204 34.5071 65.2649 33.1401 64.2668 31.1439C63.6568 29.9238 63.3324 28.5742 63.3555 27.2108C63.3786 25.8496 64.4287 23.7034 65.9576 23.6014C69.1289 23.39 72.2327 22.5103 75.4186 22.5103C78.6482 22.5103 81.8778 22.5103 85.1075 22.5103C86.4083 22.5103 87.6924 22.9419 88.9326 22.9419C90.1823 22.9419 91.1565 23.7883 92.2782 24.237" stroke="black" stroke-width="3" stroke-linecap="round"/>
<path d="M71.3416 36.7557C71.7276 38.6 72.205 39.9661 72.205 41.888C72.205 42.9112 72.205 43.9344 72.205 44.9577C72.205 46.6365 72.547 47.9959 72.8405 49.6103C73.5306 53.4059 72.8525 57.3398 72.8525 61.1457C72.8525 61.2448 72.7657 62.1723 72.6846 61.6254C72.5169 60.493 72.6491 59.2908 72.6367 58.148C72.6132 55.9881 71.9892 53.8801 71.9892 51.7327C71.9892 48.6024 72.2381 45.3588 71.7613 42.2597C71.536 40.795 70.0855 39.6977 69.6629 38.2187C69.4586 37.5038 69.3044 36.8532 69.0753 36.1202C68.9997 35.8783 68.9674 34.6867 68.9674 35.4607" stroke="black" stroke-width="3" stroke-linecap="round"/>
<path d="M69.8308 37.8349C69.3333 37.1911 68.8215 35.8113 68.104 35.4127C68.0118 35.3615 67.3446 35.1809 67.5524 35.077C68.3967 34.6548 69.0649 36.4587 69.2312 36.9716C69.7264 38.4984 70.1484 40.1882 70.7901 41.6721C71.3719 43.0176 72.2469 45.0535 73.3801 46.0249C73.4468 46.082 72.8206 44.3001 72.6127 43.9504C71.8603 42.685 71.1167 41.4917 70.2744 40.2931C69.6244 39.3681 69.1633 38.2916 68.8595 37.2114C68.6942 36.6238 68.2992 36.3331 68.104 35.7964C67.8308 35.0449 67.0521 34.1689 66.4972 33.614C65.8116 32.9285 66.9245 34.0971 67.1088 34.3695C67.8463 35.4598 68.2126 36.6842 68.8475 37.787C69.9622 39.723 71.0749 41.7381 72.0851 43.7585C72.854 45.2964 73.5242 46.7931 73.8838 48.4831C74.0418 49.2259 74.1637 50.0191 74.4114 50.7374C74.4912 50.969 74.6664 51.1518 74.7471 51.3849C74.7675 51.4438 74.7738 51.9079 74.8071 51.9245C74.9329 51.9874 75.0109 49.189 75.0109 49.0826C75.0109 47.7596 75.0109 46.4366 75.0109 45.1135C75.0109 44.8608 74.9648 43.4392 75.0229 44.514C75.1072 46.0733 75.574 47.5728 75.6465 49.1306C75.687 50.0013 75.9756 51.8323 75.5385 52.644C75.0999 53.4585 74.7951 56.2432 74.7951 55.318" stroke="black" stroke-width="3" stroke-linecap="round"/>
<path d="M74.3633 43.6627C73.1344 41.5401 71.742 39.9622 70.0345 38.2546C69.0752 37.2954 68.439 36.3623 67.7921 35.1609C67.6465 34.8905 66.9242 32.8317 66.8568 32.8466C66.6829 32.8853 67.622 36.7512 67.8401 37.1874C68.2686 38.0445 66.9489 35.487 66.593 34.5973C66.0066 33.1312 67.3892 35.5156 67.5883 36.0243C68.7531 39.0011 69.6926 42.0531 70.5261 45.0536C70.9055 46.4194 70.9845 47.8916 71.2336 49.2865C71.5551 51.0869 71.989 52.8329 71.989 54.6825C71.989 56.919 71.9362 59.1127 71.7732 61.3136C71.6445 63.0508 70.6467 65.2029 70.0465 66.8535C69.7823 67.58 69.6148 68.5205 69.6148 69.2997C69.6148 70.2262 68.9673 70.9618 68.9673 71.9378" stroke="black" stroke-width="3" stroke-linecap="round"/>
<path d="M75.6584 37.4033C76.5026 40.647 78.0221 43.7116 78.7521 46.9723C79.1346 48.6806 79.7594 50.5376 79.7594 52.2963C79.7594 53.2876 79.7594 54.2789 79.7594 55.2701C79.7594 55.7423 79.9035 57.1186 79.7114 55.8217C79.4867 54.3052 78.8639 52.8779 78.6082 51.361C78.3108 49.5964 78.1011 47.835 77.7089 46.0849C77.0841 43.2976 75.8847 40.8538 74.6152 38.3146C73.8912 36.8667 73.1163 35.3244 72.8045 33.734C72.7373 33.3915 72.2049 31.3713 72.2049 32.6069C72.2049 33.8645 71.7163 33.1969 70.9459 32.5709C70.5242 32.2283 70.1541 31.8152 69.7228 31.4797C69.3588 31.1966 68.5788 31.3928 68.3678 31.7915C68.2839 31.9499 69.578 32.1226 69.7827 32.439C71.0456 34.3908 71.9931 36.9307 72.6846 39.178C73.0067 40.2247 73.5418 41.1609 73.8237 42.1758C74.0762 43.0847 74.2769 43.9877 74.5312 44.9098C74.7435 45.6792 74.4835 46.2472 74.9149 46.9483C75.5665 48.007 75.2267 50.0868 75.2267 51.325C75.2267 52.5841 75.2267 53.8432 75.2267 55.1022C75.2267 56.4413 75.2267 57.7803 75.2267 59.1193C75.2267 59.9387 75.2267 60.7581 75.2267 61.5775C75.2267 62.3823 74.8337 62.9614 74.795 63.7359C74.7681 64.2737 74.4715 64.814 74.3753 65.3427C74.2324 66.1288 74.2706 66.945 74.1235 67.7169C74.0301 68.2073 73.4228 68.8785 73.1882 69.3477C72.8868 69.9506 73.6341 69.5142 73.8237 69.3357C74.495 68.7039 74.5853 68.097 74.6871 67.2013C75.0189 64.2815 75.4054 61.205 76.0421 58.3399C76.4977 56.2898 76.3059 54.0773 76.3059 51.9846C76.3059 51.1556 76.7376 50.5481 76.7376 49.7542C76.7376 48.8271 76.6605 47.957 76.4738 47.0442C76.0998 45.2159 75.4537 43.2438 74.6871 41.5403C74.1401 40.3246 73.3275 39.2882 72.8525 38.0029C72.4401 36.8871 71.9851 35.9653 71.3416 34.9811C70.7368 34.0561 70.2195 33.0196 69.5189 32.3191C69.4445 32.2447 68.775 31.1766 68.7515 31.5756C68.7113 32.2593 68.9872 32.9645 69.447 33.4702C70.1096 34.1991 70.254 35.6358 70.706 36.54C70.9746 37.077 71.2625 38.0834 71.7733 38.4346C72.3415 38.8252 72.1027 39.9164 72.4208 40.4731C73.2396 41.906 72.9408 43.6643 73.5959 45.1616C74.6319 47.5295 75.0109 50.0344 75.0109 52.6321C75.0109 53.2099 75.211 53.6891 75.2267 54.2389C75.2369 54.5947 75.1913 54.9638 75.2267 55.3181C75.2606 55.657 75.6245 55.8426 75.6584 56.1815C75.7988 57.5853 75.6584 59.0769 75.6584 60.4863C75.6584 62.9174 75.4425 65.2057 75.4425 67.621" stroke="white" stroke-width="3" stroke-linecap="round"/>
<path d="M66.3772 73.0169C67.1976 71.8889 67.0551 71.1872 66.8209 69.8992C66.6132 68.7571 66.8089 67.3886 66.8089 66.23C66.8089 65.7223 66.8089 65.2147 66.8089 64.7071C66.8089 64.4002 66.8089 65.8874 66.8089 66.206C66.8089 66.6149 66.9149 68.8777 67.2406 68.916C68.4488 69.0581 68.3198 67.1911 68.3198 66.2419C68.3198 65.4288 68.7168 64.555 68.7514 63.6878C68.7875 62.7876 68.9673 61.803 68.9673 60.8219C68.9673 59.2073 67.8377 59.1948 66.593 58.9873" stroke="white" stroke-width="3" stroke-linecap="round"/>
<path d="M70.0466 71.7219C70.5476 70.5431 71.5575 69.2426 71.5575 67.9327C71.5575 66.8884 71.7363 65.8262 71.7733 64.863C71.8092 63.9298 71.9859 63.0727 72.3249 62.2009C72.7348 61.1471 72.6367 60.1032 72.6367 58.9873" stroke="black" stroke-width="3" stroke-linecap="round"/>
<path d="M91.6306 25.7479C90.9511 24.8854 90.2042 24.3988 89.3762 23.7213C89.2663 23.6314 88.0522 23.3949 88.393 23.3736C89.8411 23.2831 90.8562 23.4109 91.7505 24.5607C92.1419 25.064 92.5849 25.4743 92.9736 25.9637C93.541 26.6782 93.8761 27.2723 94.3406 28.0022C94.6498 28.4881 95.1922 28.7696 94.2686 28.7696C93.6532 28.7696 92.913 28.5159 92.7098 27.9063" stroke="black" stroke-width="3" stroke-linecap="round"/>
<path d="M90.5515 25.7479C91.364 26.7821 93.3287 30.215 92.6619 29.0815C92.2486 28.3788 91.1709 26.7295 90.3357 26.3955C89.5505 26.0814 88.7432 25.6592 87.9614 25.2683C87.3874 24.9813 87.4437 24.9882 87.0501 24.4529C86.6806 23.9504 86.0657 24.0258 85.803 23.6975C85.556 23.3887 85.0554 23.4007 86.0428 23.9253C86.8895 24.3751 87.6621 25.1964 88.5849 25.3283C89.7908 25.5005 90.494 27.1271 91.199 27.9063C91.7294 28.4926 91.6841 28.6856 91.8945 29.3693C92.0532 29.8851 92.3087 29.8603 92.4941 30.1847C92.9475 30.9783 93.3574 31.5018 93.3574 32.439" stroke="black" stroke-width="3" stroke-linecap="round"/>
<path d="M99.6167 31.144C98.8863 28.75 97.7863 26.076 95.9954 24.285C95.4408 23.7304 94.8007 23.1472 94.3886 22.5103C94.1061 22.0738 92.424 21.7088 93.5012 22.7142C94.6889 23.8227 95.8727 24.396 96.463 26.0357C96.8283 27.0505 97.0877 27.9208 97.6741 28.8177C97.9908 29.3019 98.306 30.5967 98.3217 31.144C98.332 31.5049 98.4221 33.139 97.5782 32.2951C96.9862 31.7031 97.1725 30.7371 96.7148 30.1487C96.3119 29.6306 95.9474 28.9934 95.9474 28.326C95.9474 27.0158 94.8332 25.3043 94.3886 24.0692C93.9647 22.8918 92.1521 21.4453 90.9951 21.0114C90.2449 20.7301 89.4723 20.6223 88.7287 20.3519C87.9678 20.0752 88.1064 19.5983 87.7455 19.0569" stroke="white" stroke-width="3" stroke-linecap="round"/>
<path d="M86.6661 33.734C87.0476 32.3749 87.584 30.123 86.7621 28.8176C86.2488 28.0025 85.5319 27.8915 84.9874 27.2108C84.5039 26.6064 86.396 27.1228 86.6661 27.3787C87.3675 28.0431 88.416 29.1642 89.2682 29.5371C89.9602 29.8398 90.5513 30.1543 90.5513 30.9281C90.5513 31.698 90.5493 30.6629 90.5033 30.4484C90.3607 29.7831 89.9244 29.3512 89.604 28.7816C88.9098 27.5477 85.8387 27.1628 84.7236 27.9063" stroke="white" stroke-width="3" stroke-linecap="round"/>
<path d="M94.0048 18.841C94.919 17.6774 95.7415 14.9999 94.9641 13.4449C94.307 12.1307 92.5679 12.0365 91.5826 13.0612C90.8211 13.8531 90.666 16.1037 91.1029 17.1022C91.4752 17.9532 92.8551 18.3623 93.5731 18.841" stroke="black" stroke-width="3" stroke-linecap="round"/>
<path d="M84.7237 17.33C85.9197 15.7603 86.5824 11.3295 83.6445 11.5024C82.5277 11.568 82.5653 13.6987 82.5653 14.4162C82.5653 15.9563 82.7718 16.6732 83.8603 17.7617" stroke="black" stroke-width="3" stroke-linecap="round"/>
<path d="M76.306 17.3301C77.6415 16.5158 77.8169 16.1958 77.8169 14.6921C77.8169 13.7988 77.9285 12.8296 77.601 11.9821C77.0758 10.6226 75.7255 11.0707 74.4713 11.0707C72.8405 11.0707 72.077 13.3919 72.6607 14.6321C73.0681 15.4979 74.0893 16.3794 74.9989 16.6826C75.5027 16.8505 76.0589 17.0518 76.306 17.546" stroke="black" stroke-width="3" stroke-linecap="round"/>
<path d="M68.3198 17.5459C69.4174 14.7698 69.4787 11.5759 65.7777 11.7182C64.4777 11.7682 64.8664 13.868 64.8664 14.692C64.8664 15.5082 64.9237 16.3096 65.406 17.0063C65.766 17.5263 66.396 17.818 66.5931 18.4093" stroke="black" stroke-width="3" stroke-linecap="round"/>
<path d="M61.6288 18.6252C62.0767 16.0497 60.4409 13.076 58.3432 11.5504C57.8293 11.1767 57.1365 11.6794 56.7723 11.9221C55.8263 12.5528 56.0169 14.3352 56.0169 15.3156C56.0169 16.9565 55.6864 20.4188 57.9475 20.7956C59.207 21.0055 61.1971 21.5564 61.1971 19.7044" stroke="black" stroke-width="3" stroke-linecap="round"/>
<path d="M82.5 60.5C82.5 74.0355 68.9215 85.5 51.5 85.5C34.0785 85.5 20.5 74.0355 20.5 60.5C20.5 46.9645 34.0785 35.5 51.5 35.5C68.9215 35.5 82.5 46.9645 82.5 60.5Z" fill="#7C7C7C" stroke="black" stroke-width="3"/>
<path d="M43.5 39C43.5 41.3745 41.3767 43.5 38.5 43.5C35.6233 43.5 33.5 41.3745 33.5 39C33.5 36.6255 35.6233 34.5 38.5 34.5C41.3767 34.5 43.5 36.6255 43.5 39Z" fill="#ECECEC" stroke="black" stroke-width="3"/>
<path d="M67.5 39C67.5 41.3745 65.3767 43.5 62.5 43.5C59.6233 43.5 57.5 41.3745 57.5 39C57.5 36.6255 59.6233 34.5 62.5 34.5C65.3767 34.5 67.5 36.6255 67.5 39Z" fill="#ECECEC" stroke="black" stroke-width="3"/>
<path d="M33.4185 94.9676C31.9079 92.6131 31.8689 89.7827 31.7355 87.2184C31.5906 84.4321 31.416 81.417 31.6908 78.7105C32.3917 71.8065 36.2825 68.2821 41.3133 64.9074C48.9782 59.7657 57.4386 56.3183 65.5505 51.9779C68.2528 50.532 70.9279 49.0594 73.7531 47.8407C74.0718 47.7033 75.0672 47.2725 75.2943 47.3407" stroke="#A97F2C" stroke-width="2.21053" stroke-linecap="round"/>
<path d="M34.391 94.0092C43.5601 84.4502 50.5553 72.8113 58.7069 62.2885C60.5923 59.8548 62.4727 56.8654 64.9668 55.1073C66.2906 54.1742 67.6669 53.3137 69.0199 52.4239" stroke="#A97F2C" stroke-width="2.21053" stroke-linecap="round"/>
<path d="M41.1655 87.0175C42.4425 83.9443 43.0902 80.7178 44.0391 77.5852C45.8189 71.7093 47.4137 65.8126 48.7856 59.8968C49.868 55.2291 50.509 50.074 52.3834 45.4964" stroke="#937B4C" stroke-width="2.21053" stroke-linecap="round"/>
<path d="M41.3894 90.4827C42.652 89.22 43.9147 87.9573 45.1774 86.6947C45.5393 86.3328 44.3921 87.372 43.9434 87.5954C43.3761 87.8779 42.8911 88.034 42.4227 88.5024C41.9795 88.9455 41.2528 89.1129 40.6992 89.4367C39.7432 89.9959 38.6241 90.3536 38.6082 89.02C38.5982 88.1812 38.6736 87.6304 39.1372 86.8074C39.7511 85.7177 40.4426 87.2818 40.5534 87.9516C40.7029 88.8549 39.7654 91.7049 40.3696 92.3091C40.5212 92.4608 40.5515 91.8482 40.6405 91.6173C40.7842 91.2445 40.5867 91.2853 40.343 91.5291C39.5657 92.3063 39.1249 93.6562 39.0365 94.6594C38.9783 95.3196 39.5 93.3507 39.6396 92.6884C39.8039 91.9094 39.5028 91.4093 39.4749 90.661C39.4508 90.013 38.6846 90.0157 38.9654 89.1889C39.1893 88.5297 39.0793 87.7631 38.855 87.1949C38.2653 85.7011 41.0485 86.8576 41.6946 87.0208" stroke="#937B4C" stroke-width="2.21053" stroke-linecap="round"/>
<path d="M46.1013 86.521C47.3783 83.4478 48.026 80.2214 48.9749 77.0888C50.7547 71.2128 52.3495 65.3162 53.7214 59.4003C54.8038 54.7326 55.4448 49.5775 57.3192 44.9999" stroke="#937B4C" stroke-width="2.21053" stroke-linecap="round"/>
<path d="M46.3252 89.9862C47.5878 88.7235 48.8505 87.4609 50.1131 86.1982C50.475 85.8363 49.3279 86.8756 48.8792 87.099C48.3119 87.3815 47.8269 87.5375 47.3585 88.0059C46.9153 88.4491 46.1885 88.6164 45.635 88.9403C44.679 89.4995 43.5599 89.8571 43.544 88.5235C43.534 87.6847 43.6094 87.1339 44.073 86.311C44.6869 85.2213 45.3784 86.7853 45.4892 87.4551C45.6387 88.3585 44.7012 91.2085 45.3054 91.8127C45.457 91.9643 45.4873 91.3518 45.5763 91.1209C45.72 90.748 45.5225 90.7889 45.2787 91.0326C44.5015 91.8098 44.0607 93.1597 43.9723 94.1629C43.914 94.8231 44.4358 92.8542 44.5754 92.1919C44.7397 91.4129 44.4385 90.9129 44.4107 90.1646C44.3866 89.5166 43.6204 89.5192 43.9012 88.6924C44.1251 88.0333 44.0151 87.2667 43.7908 86.6984C43.2011 85.2046 45.9843 86.3612 46.6304 86.5244" stroke="#937B4C" stroke-width="2.21053" stroke-linecap="round"/>
<path d="M49.1013 86.521C50.3783 83.4478 51.026 80.2214 51.9749 77.0888C53.7547 71.2128 55.3495 65.3162 56.7214 59.4003C57.8038 54.7326 58.4448 49.5775 60.3192 44.9999" stroke="#937B4C" stroke-width="2.21053" stroke-linecap="round"/>
<path d="M49.3252 89.9862C50.5878 88.7235 51.8505 87.4609 53.1131 86.1982C53.475 85.8363 52.3279 86.8756 51.8792 87.099C51.3119 87.3815 50.8269 87.5375 50.3585 88.0059C49.9153 88.4491 49.1885 88.6164 48.635 88.9403C47.679 89.4995 46.5599 89.8571 46.544 88.5235C46.534 87.6847 46.6094 87.1339 47.073 86.311C47.6869 85.2213 48.3784 86.7853 48.4892 87.4551C48.6387 88.3585 47.7012 91.2085 48.3054 91.8127C48.457 91.9643 48.4873 91.3518 48.5763 91.1209C48.72 90.748 48.5225 90.7889 48.2787 91.0326C47.5015 91.8098 47.0607 93.1597 46.9723 94.1629C46.914 94.8231 47.4358 92.8542 47.5754 92.1919C47.7397 91.4129 47.4385 90.9129 47.4107 90.1646C47.3866 89.5166 46.6204 89.5192 46.9012 88.6924C47.1251 88.0333 47.0151 87.2667 46.7908 86.6984C46.2011 85.2046 48.9843 86.3612 49.6304 86.5244" stroke="#937B4C" stroke-width="2.21053" stroke-linecap="round"/>
<path d="M39.1013 83.521C40.3783 80.4478 41.026 77.2214 41.9749 74.0888C43.7547 68.2128 45.3495 62.3162 46.7214 56.4003C47.8038 51.7326 48.4448 46.5775 50.3192 41.9999" stroke="#937B4C" stroke-width="2.21053" stroke-linecap="round"/>
<path d="M39.3252 86.9862C40.5878 85.7235 41.8505 84.4609 43.1131 83.1982C43.475 82.8363 42.3279 83.8756 41.8792 84.099C41.3119 84.3815 40.8269 84.5375 40.3585 85.0059C39.9153 85.4491 39.1885 85.6164 38.635 85.9403C37.679 86.4995 36.5599 86.8571 36.544 85.5235C36.534 84.6847 36.6094 84.1339 37.073 83.311C37.6869 82.2213 38.3784 83.7853 38.4892 84.4551C38.6387 85.3585 37.7012 88.2085 38.3054 88.8127C38.457 88.9643 38.4873 88.3518 38.5763 88.1209C38.72 87.748 38.5225 87.7889 38.2787 88.0326C37.5015 88.8098 37.0607 90.1597 36.9723 91.1629C36.914 91.8231 37.4358 89.8542 37.5754 89.1919C37.7397 88.4129 37.4385 87.9129 37.4107 87.1646C37.3866 86.5166 36.6204 86.5192 36.9012 85.6924C37.1251 85.0333 37.0151 84.2667 36.7908 83.6984C36.2011 82.2046 38.9843 83.3612 39.6304 83.5244" stroke="#937B4C" stroke-width="2.21053" stroke-linecap="round"/>
<path d="M43.1013 83.521C44.3783 80.4478 45.026 77.2214 45.9749 74.0888C47.7547 68.2128 49.3495 62.3162 50.7214 56.4003C51.8038 51.7326 52.4448 46.5775 54.3192 41.9999" stroke="#937B4C" stroke-width="2.21053" stroke-linecap="round"/>
<path d="M43.3252 86.9862C44.5878 85.7235 45.8505 84.4609 47.1131 83.1982C47.475 82.8363 46.3279 83.8756 45.8792 84.099C45.3119 84.3815 44.8269 84.5375 44.3585 85.0059C43.9153 85.4491 43.1885 85.6164 42.635 85.9403C41.679 86.4995 40.5599 86.8571 40.544 85.5235C40.534 84.6847 40.6094 84.1339 41.073 83.311C41.6869 82.2213 42.3784 83.7853 42.4892 84.4551C42.6387 85.3585 41.7012 88.2085 42.3054 88.8127C42.457 88.9643 42.4873 88.3518 42.5763 88.1209C42.72 87.748 42.5225 87.7889 42.2787 88.0326C41.5015 88.8098 41.0607 90.1597 40.9723 91.1629C40.914 91.8231 41.4358 89.8542 41.5754 89.1919C41.7397 88.4129 41.4385 87.9129 41.4107 87.1646C41.3866 86.5166 40.6204 86.5192 40.9012 85.6924C41.1251 85.0333 41.0151 84.2667 40.7908 83.6984C40.2011 82.2046 42.9843 83.3612 43.6304 83.5244" stroke="#937B4C" stroke-width="2.21053" stroke-linecap="round"/>
</g>
<defs>
<clipPath id="clip0_3450_152">
<rect width="100" height="100" fill="white"/>
</clipPath>
</defs>
</svg>
